<svg width="56" height="57" viewBox="0 0 56 57" fill="none" xmlns="http://www.w3.org/2000/svg">
<rect y="0.333496" width="56" height="56" rx="16" fill="#54ACEE"/>
<g clip-path="url(#clip0_711_3270)">
<path d="M30.744 16.8803C28.3347 17.9029 26.7507 20.1509 26.6693 22.7203L26.6667 22.9629L26.3427 22.9323C23.1533 22.5736 20.3453 20.9163 18.4173 18.2243C18.2868 18.0418 18.1123 17.8953 17.9101 17.7982C17.7078 17.7011 17.4843 17.6566 17.2603 17.6688C17.0363 17.681 16.819 17.7496 16.6285 17.8681C16.4381 17.9867 16.2806 18.1514 16.1707 18.3469L16.0413 18.5949L15.976 18.7269C15.0173 20.7069 14.3893 23.1136 14.62 25.6643L14.66 26.0283C15.0373 29.0456 16.66 31.6483 19.6987 33.6003L19.9293 33.7429L19.8213 33.8003C18.068 34.6843 16.464 35.0696 14.7187 35.0003C13.3107 34.9469 12.7907 36.8296 14.028 37.5043C18.8253 40.1189 23.976 40.9256 28.4173 39.6376C33.8307 38.0643 37.9533 34.0069 39.5307 28.3936L39.7 27.7336C40.0173 26.4096 40.196 25.0589 40.2347 23.7016L40.2387 23.2589L40.7627 22.2203L41.3493 21.0709L41.6347 20.4923L41.792 20.1629C42.1453 19.4096 42.4 18.7856 42.5573 18.2563L42.576 18.1816L42.5867 18.1576C42.88 17.3669 42.3653 16.3469 41.332 16.3469L41.1693 16.3563C41.064 16.3692 40.9606 16.3947 40.8613 16.4323L40.7467 16.4829C40.3661 16.6677 39.9742 16.828 39.5733 16.9629L39.0987 17.1163L38.7373 17.2229L37.708 17.5083C35.9267 16.0176 33.516 15.8363 31.0253 16.7696L30.744 16.8803Z" fill="white"/>
</g>
<defs>
<clipPath id="clip0_711_3270">
<rect width="32" height="32" fill="white" transform="translate(12 12.3335)"/>
</clipPath>
</defs>
</svg>
